<svg xmlns="http://www.w3.org/2000/svg" width="109" height="68" viewBox="0 0 109 68"><title>cornerstone logo</title><g fill="none"><path d="M25.113 28.184L0 40.674 54.437 68V41.411L25.113 28.184z" fill="#f3561d"/><path d="M88.652 30.578L109 40.674 54.437 68V41.308l34.215-10.73z" fill="#73180f"/><path d="M54.39 0L13.515 20.306 54.39 40.8l40.97-20.4L54.39 0" fill="#ffac00"/><path d="M13.515 47.458V20.306L54.39 40.8V68L13.515 47.458" fill="#7c8689"/><path d="M13.515 47.458V20.306L54.437 40.8V68L13.515 47.458" fill="#73180f"/><path d="M95.36 47.458V20.4L54.436 40.8V68l40.922-20.542M54.403 10.292L34.48 20.194l19.933 9.994-.011-19.896" fill="#f3561d"/><path d="M54.403 30.188V10.292l19.99 9.948-19.99 9.948" fill="#73180f"/></g></svg>