<svg xmlns="http://www.w3.org/2000/svg">
  <symbol id="icon-email" viewbox="0 0 26 22">
    <path d="M4.183 3.247L13 13.441l8.817-10.194A1.985 1.985 0 0 0 21 3.072H5c-.286 0-.563.06-.817.175zM3.069 17.458l5.8-5.748-5.865-6.78A1.87 1.87 0 0 0 3 5.054v11.892c0 .175.024.347.069.512zm18.448 1.402l-5.691-5.64L13 16.487l-2.826-3.267-5.69 5.64c.166.044.34.068.516.068h16c.177 0 .35-.024.517-.068zM23 5.054a1.87 1.87 0 0 0-.004-.124l-5.865 6.78 5.8 5.748c.045-.165.069-.337.069-.512zM2.875 1h20.25C24.164 1 25 1.829 25 2.858v16.284c0 1.03-.836 1.858-1.875 1.858H2.875A1.863 1.863 0 0 1 1 19.142V2.858C1 1.828 1.836 1 2.875 1z" />
  </symbol>
  <symbol id="icon-github" viewbox="0 0 26 26">
    <path d="M12.999 1C6.373 1 1 6.509 1 13.304 1 18.74 4.438 23.351 9.207 24.98c.6.112.819-.267.819-.594 0-.292-.01-1.065-.017-2.092-3.337.743-4.042-1.65-4.042-1.65-.546-1.421-1.332-1.8-1.332-1.8-1.09-.762.082-.747.082-.747 1.205.088 1.838 1.268 1.838 1.268 1.07 1.88 2.81 1.337 3.493 1.022.109-.795.419-1.337.761-1.644-2.664-.312-5.466-1.367-5.466-6.081 0-1.344.468-2.442 1.236-3.302-.124-.311-.536-1.562.118-3.256 0 0 1.007-.33 3.3 1.26a11.1 11.1 0 0 1 6.008 0c2.29-1.59 3.296-1.26 3.296-1.26.655 1.694.243 2.945.12 3.256.77.86 1.233 1.958 1.233 3.302 0 4.726-2.806 5.766-5.478 6.07.43.38.814 1.132.814 2.28 0 1.644-.015 2.971-.015 3.374 0 .33.217.712.825.592 4.765-1.63 8.2-6.238 8.2-11.673C25 6.51 19.627 1 12.999 1" />
  </symbol>
  <symbol id="icon-slack" viewbox="0 0 26 26">
    <path d="M19.83 15.053l-1.554.518.538 1.612a1.246 1.246 0 0 1-.787 1.573c-.134.038-.288.077-.422.058a1.28 1.28 0 0 1-1.151-.845l-.538-1.611-3.204 1.074.537 1.612a1.246 1.246 0 0 1-.786 1.573c-.135.039-.288.077-.422.058a1.28 1.28 0 0 1-1.152-.845l-.537-1.611-1.554.518c-.134.038-.288.077-.422.057a1.28 1.28 0 0 1-1.151-.844 1.246 1.246 0 0 1 .786-1.573l1.555-.518-1.037-3.09-1.554.519c-.134.038-.287.077-.422.057a1.28 1.28 0 0 1-1.15-.844 1.246 1.246 0 0 1 .786-1.573l1.554-.518-.537-1.612a1.246 1.246 0 0 1 .786-1.573 1.246 1.246 0 0 1 1.574.786l.537 1.612 3.204-1.074-.537-1.612a1.246 1.246 0 0 1 .786-1.573 1.246 1.246 0 0 1 1.574.786l.537 1.612 1.554-.518a1.246 1.246 0 0 1 1.573.787 1.246 1.246 0 0 1-.786 1.573l-1.554.518 1.036 3.089 1.554-.518a1.246 1.246 0 0 1 1.573.787 1.246 1.246 0 0 1-.787 1.573zM23.994 9.7C21.519 1.45 17.95-.47 9.7 2.006 1.45 4.481-.47 8.05 2.006 16.3 4.481 24.55 8.05 26.47 16.3 23.994c8.25-2.475 10.17-6.044 7.694-14.294zm-13.113 2.308l3.202-1.072 1.036 3.093-3.202 1.072z" />
  </symbol>
  <symbol id="icon-twitter" viewbox="0 0 26 26">
    <path d="M9.357 20.978c7.41 0 11.463-6.14 11.463-11.463 0-.175 0-.348-.012-.52a8.198 8.198 0 0 0 2.01-2.086 8.04 8.04 0 0 1-2.314.634 4.043 4.043 0 0 0 1.771-2.229c-.79.47-1.656.8-2.558.978a4.032 4.032 0 0 0-6.865 3.674 11.438 11.438 0 0 1-8.303-4.209 4.032 4.032 0 0 0 1.247 5.378 3.999 3.999 0 0 1-1.829-.504v.05a4.03 4.03 0 0 0 3.232 3.95 4.02 4.02 0 0 1-1.819.069 4.033 4.033 0 0 0 3.764 2.798 8.083 8.083 0 0 1-5.962 1.67 11.406 11.406 0 0 0 6.175 1.806M2.875 1h20.25A1.87 1.87 0 0 1 25 2.875v20.25A1.87 1.87 0 0 1 23.125 25H2.875A1.87 1.87 0 0 1 1 23.125V2.875A1.87 1.87 0 0 1 2.875 1z" />
  </symbol>
  <symbol id="icon-rss" viewbox="0 0 26 26">
    <path d="M2.875 1h20.25A1.87 1.87 0 0 1 25 2.875v20.25A1.87 1.87 0 0 1 23.125 25H2.875A1.87 1.87 0 0 1 1 23.125V2.875A1.87 1.87 0 0 1 2.875 1zm4.172 15.703a2.25 2.25 0 1 0 0 4.5 2.25 2.25 0 0 0 0-4.5zm5.44-3.19a11.007 11.007 0 0 0-7.69-3.185v3.188a7.78 7.78 0 0 1 5.436 2.251 7.78 7.78 0 0 1 2.251 5.436h3.188c0-2.847-1.172-5.676-3.185-7.69zm8.716 7.69c0-4.295-1.768-8.564-4.805-11.6C13.36 6.564 9.092 4.796 4.797 4.796v3.281c3.436 0 6.85 1.415 9.28 3.844a13.284 13.284 0 0 1 3.845 9.281z" />
  </symbol>
</svg>