<svg xmlns="http://www.w3.org/2000/svg" width="113.364" height="201.379" viewBox="0 0 113.36444 201.37941"><g color="#000"><path d="M113.364 50.726c0 28.016-25.377 50.727-56.682 50.727C25.377 101.453 0 78.742 0 50.726 0 22.711 25.377 0 56.682 0c31.305 0 56.682 22.711 56.682 50.726z" style="marker:none" fill="#bace68" overflow="visible"/><path d="M54.848 5.408c-.085.007-.168.025-.253.038-1.362.203-2.314 1.438-2.106 2.774.135.872.73 1.574 1.501 1.894.37 3.023.667 6.637.897 10.332l-.02.019c.296 5.673.375 11.987.313 18.616-4.157-4.457-8.224-9.545-14.02-18.578.388-.739.4-1.652-.078-2.41a2.518 2.518 0 0 0-2.028-1.168 2.56 2.56 0 0 0-1.423.364 2.416 2.416 0 0 0-.8 3.367 2.513 2.513 0 0 0 2.223 1.167c6.684 10.408 11.2 15.767 16.087 20.797-.122 7.103-.404 14.516-.78 21.926-5.275-5.363-17.896-16.226-26.363-30.631a2.391 2.391 0 0 0 .059-2.41c-.491-.893-1.45-1.354-2.418-1.263a2.53 2.53 0 0 0-.956.267c-1.212.643-1.668 2.14-1.013 3.33.441.802 1.276 1.243 2.144 1.262 8.668 14.74 22.949 28.314 28.313 33.73-.388 6.97-.841 13.8-1.326 20.357C38.16 76.085 23.91 65.67 13.667 48.245a2.395 2.395 0 0 0 .039-2.41 2.505 2.505 0 0 0-3.374-.976c-1.21.646-1.653 2.122-.994 3.31.442.795 1.264 1.24 2.125 1.262 10.852 18.552 25.954 30.117 41.045 43.832-3.161 44.57-2.734 71.82-.292 108.116l5.57-.034c-3.581-35.973-4.007-73.485-1.515-108.79 15.954-12.766 31.78-23.38 43.814-41.23.87.041 1.745-.354 2.243-1.129.734-1.144.366-2.666-.8-3.386a2.495 2.495 0 0 0-1.404-.363 2.48 2.48 0 0 0-2.028 1.128 2.414 2.414 0 0 0-.117 2.411c-11.274 16.66-26.024 26.143-41.376 38.207a797.06 797.06 0 0 0 1.15-20.223c5.118-5.183 20.729-17.155 30.067-35.777.859-.075 1.658-.576 2.048-1.397.582-1.225.04-2.681-1.21-3.252a2.49 2.49 0 0 0-.955-.23c-.971-.034-1.922.497-2.359 1.416a2.396 2.396 0 0 0 .195 2.392c-8.78 17.195-22.117 26.93-27.61 32.371.256-6.988.391-14.045.35-20.95 4.286-3.766 9.875-9.158 13.377-17.85.868-.152 1.63-.73 1.93-1.607a2.431 2.431 0 0 0-1.56-3.1 2.6 2.6 0 0 0-.994-.133 2.5 2.5 0 0 0-2.184 1.664c-.287.837-.07 1.721.468 2.353-2.879 7.117-7.227 11.825-11.075 15.364-.084-5.785-.29-11.43-.683-16.798-.248-4.196-.616-8.951-1.072-12.647a2.4 2.4 0 0 0 .936-2.296 2.47 2.47 0 0 0-2.574-2.085z" style="text-indent:0;text-align:start;line-height:normal;text-transform:none;block-progression:tb;marker:none;-inkscape-font-specification:Sans" font-weight="400" fill="#44392d" overflow="visible" font-family="Sans"/></g></svg>