<svg xmlns="http://www.w3.org/2000/svg" xmlns:xlink="http://www.w3.org/1999/xlink" width="220" height="44" viewBox="0 0 220 44">
  <svg width="44" height="37" viewBox="0 0 44 37" id="email" x="0">
    <path
      class="icon__svg icon--email"
      d="M5.835 4.158L22 23.016 38.164 4.158a3.611 3.611 0 0 0-1.497-.325H7.333c-.523 0-1.031.113-1.498.325zm-2.042 26.29l10.633-10.634L3.675 7.271a3.492 3.492 0 0 0-.008.229v22c0 .324.043.642.126.948zm33.821 2.592L27.181 22.607 22 28.65l-5.18-6.045L6.386 33.04c.306.083.623.127.947.127h29.334c.324 0 .641-.044.947-.127zm2.72-25.54c0-.077-.004-.153-.009-.23L29.574 19.815l10.633 10.634c.083-.306.126-.624.126-.948zM3.436 0h37.125A3.43 3.43 0 0 1 44 3.438v30.125A3.43 3.43 0 0 1 40.562 37H3.437A3.43 3.43 0 0 1 0 33.563V3.438A3.43 3.43 0 0 1 3.437 0z"
      fill="#1b1817">
      <title>Email</title>
      <desc>Letter symbol, indicating email</desc>
     </path>
  </svg>
  <svg width="44" height="43" viewBox="0 0 44 43" id="github" x="44">
    <path
      class="icon__svg icon--github"
      d="M21.998 0C9.851 0 0 9.87 0 22.045c0 9.738 6.303 18.001 15.045 20.917 1.101.202 1.502-.479 1.502-1.063 0-.524-.019-1.91-.03-3.749-6.119 1.332-7.41-2.956-7.41-2.956-1-2.546-2.443-3.224-2.443-3.224-1.998-1.367.15-1.34.15-1.34 2.21.156 3.37 2.272 3.37 2.272 1.963 3.368 5.15 2.395 6.404 1.831.2-1.424.768-2.395 1.396-2.946-4.885-.558-10.021-2.448-10.021-10.895 0-2.408.858-4.374 2.265-5.915-.227-.558-.982-2.799.216-5.834 0 0 1.846-.593 6.05 2.258 1.753-.488 3.636-.732 5.507-.741 1.869.01 3.75.253 5.507.741 4.2-2.851 6.044-2.258 6.044-2.258 1.2 3.035.446 5.276.22 5.834 1.41 1.541 2.261 3.507 2.261 5.915 0 8.468-5.144 10.332-10.044 10.877.789.681 1.492 2.026 1.492 4.083 0 2.946-.027 5.324-.027 6.047 0 .59.397 1.276 1.513 1.06C37.702 40.038 44 31.782 44 22.045 44 9.869 34.149 0 21.998 0"
      fill="#1b1817">
      <title>GitHub</title>
      <desc>Octocat, official mascot of GitHub Inc</desc>
    </path>
  </svg>
  <svg width="44" height="44" viewBox="0 0 44 44" id="rss" x="88">
    <path
      class="icon__svg icon--rss"
      d="M3.438 0h37.124A3.43 3.43 0 0 1 44 3.438v37.124A3.43 3.43 0 0 1 40.562 44H3.438A3.43 3.43 0 0 1 0 40.562V3.438A3.43 3.43 0 0 1 3.438 0zm7.648 28.79a4.125 4.125 0 1 0 0 8.25 4.125 4.125 0 0 0 0-8.25zm9.973-5.849c-3.691-3.69-8.878-5.84-14.098-5.84v5.844c3.69 0 7.357 1.52 9.966 4.128 2.609 2.61 4.128 6.276 4.128 9.966h5.843c0-5.22-2.148-10.407-5.84-14.098zm15.98 14.098c0-7.874-3.242-15.7-8.81-21.268-5.568-5.568-13.394-8.81-21.268-8.81v6.016c6.3 0 12.56 2.593 17.015 7.047 4.454 4.455 7.047 10.716 7.047 17.015z"
      fill="#1b1817">
      <title>RSS</title>
      <desc>RSS icon, indicating Really Simple Syndication news feed</desc>
    </path>
  </svg>
  <svg width="44" height="44" viewBox="0 0 44 44" id="slack" x="132">
    <path
      class="icon__svg icon--slack"
      d="M42.156 15.95C37.618.824 31.076-2.693 15.95 1.844.824 6.382-2.693 12.924 1.844 28.05c4.538 15.126 11.08 18.643 26.206 14.106 15.126-4.538 18.643-11.08 14.106-26.206zm-7.633 9.814l-2.85.95.985 2.954c.387 1.196-.246 2.498-1.442 2.885-.246.07-.528.14-.774.105-.914-.035-1.794-.633-2.11-1.548l-.985-2.954-5.875 1.97.985 2.954c.387 1.196-.246 2.498-1.442 2.885-.246.07-.528.14-.774.105-.914-.035-1.794-.633-2.11-1.547l-.985-2.955-2.85.95c-.246.07-.527.14-.773.105-.915-.035-1.794-.633-2.11-1.548-.388-1.196.245-2.497 1.441-2.884l2.85-.95-1.9-5.663-2.85.95c-.245.07-.527.14-.773.105-.915-.035-1.794-.633-2.11-1.548-.388-1.196.246-2.497 1.442-2.884l2.849-.95-.985-2.955c-.387-1.196.246-2.497 1.442-2.884s2.498.246 2.885 1.442l.984 2.955 5.875-1.97-.985-2.955C21.19 9.688 21.824 8.387 23.02 8s2.498.246 2.885 1.442l.984 2.955 2.85-.95c1.196-.387 2.497.246 2.884 1.442s-.246 2.498-1.442 2.885l-2.85.95 1.9 5.663 2.85-.95c1.195-.387 2.497.246 2.884 1.442s-.246 2.498-1.442 2.885zm-16.408-5.582l5.87-1.967 1.9 5.67-5.871 1.967z"
      fill="#1b1817">
      <title>Slack</title>
      <desc>Official icon of Slack, indicating Slack channel</desc>
    </path>
  </svg>
  <svg width="44" height="44" viewBox="0 0 44 44" id="twitter" x="176">
    <path
      class="icon__svg icon--twitter"
      d="M15.321 36.626c13.585 0 21.016-11.255 21.016-21.016 0-.32 0-.637-.022-.954A15.028 15.028 0 0 0 40 10.832c-1.348.598-2.778.99-4.242 1.163a7.412 7.412 0 0 0 3.247-4.086 14.801 14.801 0 0 1-4.69 1.793 7.393 7.393 0 0 0-12.587 6.736A20.969 20.969 0 0 1 6.506 8.721a7.391 7.391 0 0 0 2.286 9.86 7.333 7.333 0 0 1-3.352-.925v.094a7.388 7.388 0 0 0 5.926 7.24 7.375 7.375 0 0 1-3.335.127 7.394 7.394 0 0 0 6.9 5.13A14.82 14.82 0 0 1 4 33.308a20.91 20.91 0 0 0 11.321 3.312M3.438 0h37.125A3.43 3.43 0 0 1 44 3.438v37.125A3.43 3.43 0 0 1 40.563 44H3.438A3.43 3.43 0 0 1 0 40.563V3.438A3.43 3.43 0 0 1 3.438 0z"
      fill="#1b1817">
      <title>Twitter</title>
      <desc>Twitter bird mascot</desc>
    </path>
  </svg>
</svg>
